# xmcd
#
# Track frame offsets: 
#        150
#        15092
#        29607
#        46650
#        66017
#        77435
#        92925
#        112210
#        127512
#        137870
#        156760
#        180552
#
# Disc length: 2514 seconds
#
# Revision: 7
# Processed by: cddbd v1.5.1PL2 Copyright (c) Steve Scherf et al.
# Submitted via: ExactAudioCopy v0.90b4
#
DISCID=8c09d00c
DTITLE=Mecano - Mecano
DYEAR=1982
DGENRE=Pop
TTITLE0=Hoy No Me Puedo Levantar
TTITLE1=No Me Enseñen La Lección
TTITLE2=Perdido En Mi Habitación
TTITLE3=Cenando En París
TTITLE4=Maquillaje
TTITLE5=Boda En Londres
TTITLE6=Me Colé En Una Fiesta
TTITLE7=La Máquina De Vapor
TTITLE8=Me Voy De Casa
TTITLE9=254.13.26
TTITLE10=El Fin Del Mundo
TTITLE11=Sólo Soy Una Persona
EXTD=CBS 462594 2\nArreglos: Luis Cobos\nEs una produccion de CBS diri
EXTD=gida por Jorge Alvarez\n
EXTT0=
EXTT1=
EXTT2=
EXTT3=
EXTT4=
EXTT5=
EXTT6=
EXTT7=
EXTT8=
EXTT9=
EXTT10=
EXTT11=
PLAYORDER=
